<?xml version="1.0" encoding="UTF-8"?>
<!DOCTYPE svg PUBLIC "-//W3C//DTD SVG 1.1//EN" "http://www.w3.org/Graphics/SVG/1.1/DTD/svg11.dtd">
<!-- Creator: CorelDRAW 2018 (64-Bit) -->
<svg xmlns="http://www.w3.org/2000/svg" xml:space="preserve" width="140px" height="55px" version="1.1" style="shape-rendering:geometricPrecision; text-rendering:geometricPrecision; image-rendering:optimizeQuality; fill-rule:evenodd; clip-rule:evenodd"
viewBox="0 0 140 55"
 xmlns:xlink="http://www.w3.org/1999/xlink">
 <defs>
  <style type="text/css">
   <![CDATA[
    .fil0 {fill:none}
    .fil1 {fill:#72C02C}
    .fil3 {fill:#555555;fill-rule:nonzero}
    .fil2 {fill:#72C02C;fill-rule:nonzero}
   ]]>
  </style>
 </defs>
 <g id="Слой_x0020_1">
  <metadata id="CorelCorpID_0Corel-Layer"/>
  <rect class="fil0" width="140" height="55"/>
  <polygon class="fil1" points="9.99,7.69 19.44,9.6 19.44,24.25 9.99,24.5 "/>
  <polygon class="fil1" points="9.99,33 19.44,33.45 19.44,48.43 9.99,49.8 "/>
  <path class="fil2" d="M48.86 27.74c0.51,0 0.94,0.29 1.31,0.87 0.36,0.55 0.53,1.22 0.53,2.04 0,2.57 0,10.67 0,15.84 0,0 -6.3,2.23 -6.3,2.23 0,-2.57 0,-10.68 0,-15.85 -0.83,0 -3.16,0 -4.82,0 0,2.57 0,12.79 0,17.96 0,0 -9.54,3.48 -9.54,3.48 0,-2.57 0,-16.27 0,-21.44 0,-1.28 0,-7.55 0,-10.12 0,-1.28 0,-2.9 0,-4.84 0,-1.94 0,-14.65 0,-17.22 0,0 3.2,1.25 6.96,2.76 2.66,1.08 5.6,2.28 7.87,3.27 2.38,1.03 5.83,2.17 5.83,5.23 0,1.94 0,9.03 0,12.92 0,0.78 -0.17,1.47 -0.53,2.04 -0.37,0.55 -0.8,0.83 -1.31,0.83zm-4.46 -4.99c0,-1.94 0,-3.88 0,-5.82 0,0 -4.82,-1.58 -4.82,-1.58 0,1.29 0,4.8 0,7.4 0.84,0 3.17,0 4.82,0z"/>
  <path class="fil3" d="M67.18 17.84l-0.1 1.62c0.5,-0.66 1.05,-1.15 1.65,-1.48 0.6,-0.32 1.26,-0.48 1.97,-0.48 0.86,0 1.61,0.23 2.25,0.7 0.63,0.46 1.02,1 1.18,1.61 0.16,0.61 0.24,1.64 0.24,3.1l0 7.74c0,1.67 -0.1,2.86 -0.3,3.57 -0.2,0.7 -0.61,1.27 -1.22,1.69 -0.62,0.42 -1.36,0.63 -2.23,0.63 -0.68,0 -1.33,-0.16 -1.92,-0.49 -0.59,-0.33 -1.13,-0.81 -1.62,-1.45l0 4.2 -5.58 0 0 -20.96 5.68 0zm1.6 5.34c0,-1.14 -0.04,-1.83 -0.12,-2.07 -0.08,-0.24 -0.32,-0.36 -0.7,-0.36 -0.37,0 -0.61,0.14 -0.72,0.42 -0.11,0.27 -0.16,0.94 -0.16,2.01l0 7.61c0,1.1 0.06,1.8 0.17,2.07 0.11,0.28 0.35,0.42 0.73,0.42 0.36,0 0.58,-0.13 0.67,-0.38 0.09,-0.26 0.13,-0.87 0.13,-1.85l0 -7.87zm20.06 1.1l0 4.5c0,1.65 -0.08,2.86 -0.25,3.64 -0.16,0.77 -0.52,1.49 -1.06,2.16 -0.54,0.67 -1.24,1.16 -2.1,1.48 -0.85,0.32 -1.83,0.48 -2.93,0.48 -1.24,0 -2.29,-0.14 -3.14,-0.41 -0.86,-0.27 -1.53,-0.68 -2,-1.23 -0.48,-0.55 -0.82,-1.22 -1.02,-2 -0.2,-0.78 -0.3,-1.95 -0.3,-3.51l0 -4.71c0,-1.71 0.18,-3.04 0.55,-4 0.37,-0.96 1.03,-1.73 1.99,-2.31 0.96,-0.58 2.19,-0.87 3.68,-0.87 1.25,0 2.33,0.18 3.23,0.56 0.9,0.37 1.59,0.86 2.08,1.46 0.49,0.6 0.82,1.22 1,1.85 0.18,0.64 0.27,1.61 0.27,2.91zm-5.58 -1.38c0,-0.94 -0.05,-1.54 -0.15,-1.78 -0.1,-0.24 -0.32,-0.37 -0.66,-0.37 -0.33,0 -0.55,0.13 -0.67,0.37 -0.11,0.24 -0.16,0.84 -0.16,1.78l0 8.29c0,0.87 0.05,1.43 0.16,1.69 0.12,0.27 0.33,0.4 0.66,0.4 0.33,0 0.55,-0.12 0.66,-0.36 0.11,-0.24 0.16,-0.76 0.16,-1.55l0 -8.47zm12.98 -5.06l-0.2 2.41c0.82,-1.73 2,-2.65 3.55,-2.75l0 6.46c-1.03,0 -1.78,0.13 -2.27,0.41 -0.48,0.28 -0.77,0.66 -0.88,1.16 -0.11,0.49 -0.17,1.63 -0.17,3.41l0 7.26 -5.58 0 0 -18.36 5.55 0zm10.97 -2.44l0 2.89 1.56 0 0 2.92 -1.56 0 0 9.82c0,1.2 0.06,1.87 0.19,2.01 0.13,0.14 0.66,0.21 1.59,0.21l0 2.95 -2.26 0c-1.27,0 -2.19,-0.06 -2.73,-0.16 -0.55,-0.11 -1.03,-0.35 -1.44,-0.74 -0.42,-0.38 -0.68,-0.81 -0.78,-1.31 -0.1,-0.49 -0.15,-1.65 -0.15,-3.47l0 -9.31 -1.19 0 0 -2.92 1.19 0 0 -2.89 5.58 0zm7.75 9.55l-5.24 0 0 -1.23c0,-1.43 0.17,-2.52 0.49,-3.3 0.33,-0.77 0.99,-1.45 1.98,-2.04 0.98,-0.59 2.26,-0.88 3.84,-0.88 1.89,0 3.32,0.33 4.28,1 0.96,0.67 1.53,1.49 1.73,2.46 0.19,0.98 0.29,2.98 0.29,6.02l0 9.22 -5.44 0 0 -1.64c-0.34,0.66 -0.79,1.15 -1.32,1.48 -0.54,0.33 -1.18,0.5 -1.93,0.5 -0.98,0 -1.88,-0.28 -2.7,-0.83 -0.81,-0.55 -1.22,-1.75 -1.22,-3.6l0 -1.51c0,-1.38 0.22,-2.31 0.65,-2.81 0.44,-0.51 1.51,-1.08 3.23,-1.75 1.84,-0.72 2.82,-1.2 2.95,-1.45 0.13,-0.25 0.2,-0.76 0.2,-1.53 0,-0.96 -0.07,-1.58 -0.22,-1.87 -0.14,-0.29 -0.38,-0.44 -0.72,-0.44 -0.38,0 -0.62,0.13 -0.71,0.37 -0.09,0.24 -0.14,0.88 -0.14,1.91l0 1.92zm1.79 2.51c-0.9,0.66 -1.43,1.21 -1.57,1.65 -0.15,0.45 -0.22,1.08 -0.22,1.91 0,0.96 0.06,1.56 0.19,1.84 0.12,0.28 0.37,0.42 0.75,0.42 0.35,0 0.58,-0.11 0.69,-0.33 0.11,-0.22 0.16,-0.78 0.16,-1.71l0 -3.78zm13.25 -13.68l0 22.42 -5.75 0 0 -22.42 5.75 0z"/>
 </g>
</svg>
