<svg width="23" height="23" viewBox="0 0 23 23" fill="none" xmlns="http://www.w3.org/2000/svg">
<path d="M11.464 0.71875C6.79209 0.71875 2.80303 3.7375 1.32959 7.90625H21.6702C20.1608 3.7375 16.1718 0.71875 11.464 0.71875Z" fill="#F9F9F9"/>
<path d="M11.464 22.2812C16.1718 22.2812 20.1608 19.2625 21.6343 15.0938H1.32959C2.80303 19.2984 6.79209 22.2812 11.464 22.2812Z" fill="#ED4C5C"/>
<path d="M1.32969 7.90625C0.934375 9.02031 0.71875 10.2422 0.71875 11.5C0.71875 12.7578 0.934375 13.9797 1.32969 15.0938H21.6703C22.0656 13.9797 22.2812 12.7578 22.2812 11.5C22.2812 10.2422 22.0656 9.02031 21.6703 7.90625H1.32969Z" fill="#428BC1"/>
</svg>
