<?xml version="1.0" encoding="UTF-8"?>
<!DOCTYPE svg PUBLIC "-//W3C//DTD SVG 1.1//EN" "http://www.w3.org/Graphics/SVG/1.1/DTD/svg11.dtd">
<!-- Creator: CorelDRAW 2018 (64-Bit) -->
<svg xmlns="http://www.w3.org/2000/svg" xml:space="preserve" width="400px" height="450px" version="1.1" style="shape-rendering:geometricPrecision; text-rendering:geometricPrecision; image-rendering:optimizeQuality; fill-rule:evenodd; clip-rule:evenodd"
viewBox="0 0 400 450"
 xmlns:xlink="http://www.w3.org/1999/xlink">
 <defs>
  <style type="text/css">
   <![CDATA[
    .fil3 {fill:#285C70}
    .fil0 {fill:#4382A1}
    .fil1 {fill:#515151}
    .fil4 {fill:#A855AF}
    .fil2 {fill:#FED1A9}
    .fil5 {fill:#FEFEFE}
   ]]>
  </style>
 </defs>
 <g id="Слой_x0020_1">
  <metadata id="CorelCorpID_0Corel-Layer"/>
  <g id="_2237750476432">
   <path class="fil0" d="M9.41 437.98c0.5,-0.65 9.47,-39.89 10.67,-43.84 6.01,-19.76 11.72,-42 25.15,-58.02 5,-5.97 8.82,-8.37 17.65,-9.98 14.49,-2.64 31.41,-5.12 45.3,-9.66 5.95,-4.67 -7.95,1.83 12.2,-12.99 4.58,-3.37 12.33,-7.62 14.64,-11.06 1.49,1.41 0.46,-0.5 0.96,1.83 2.55,-2.86 -0.21,-0.96 3.32,-2.64 3.26,-1.43 1.52,-10.55 1.23,-17.09 -1.26,-29.15 -4.32,-16.16 -12.96,-45.78 -2.9,-9.96 -7.96,-0.46 -16.39,-22.64 -3.99,-10.48 -5.43,-22.66 1.55,-31.3 2.18,-25.11 -12.87,-66.45 24.55,-86.84 4.36,-2.38 10.07,-2.92 13.6,-5.5 22.51,-16.43 50,-17.23 77.65,-9.85 10.53,2.81 18.35,5.94 26.94,11.17 8.93,5.44 13.67,11.01 18.55,19.17 4.3,2.06 51.42,47.42 58.53,54.3l58.04 55 0 -201.68 -381.18 0 0 427.4z"/>
   <path class="fil1" d="M9.41 437.98l0 1.43 381.18 0 0 -0.78c-3.98,0.04 -5.16,0.48 -8.27,-0.66l-15.58 -60.72c-6.87,-15.79 -4.79,-14.63 -14.81,-33.65 -5.61,-10.65 -11.76,-15.27 -22.92,-17.63 -7.29,-1.54 -16.75,-3.23 -23.5,-4.38 -33.75,-5.73 -15.95,-6.24 -26.86,-13.23l-1.75 -1.1c-0.17,-0.11 -0.39,-0.27 -0.56,-0.38l-8.87 -6.46c-1.81,-1.2 -2.62,-1.6 -4.04,-2.6 -3.24,-2.29 -4.03,-3.65 -7.82,-4.9 5.46,18.17 -6.76,56.92 -11.86,74.06 -3.4,11.41 -6.92,22.67 -10.77,33.93 -3.19,9.3 -9.21,23.97 -11.14,32.99l-1.72 4.61 -42.64 -0.31 -5.14 0.24 -22.79 -68.63c-6.91,-23.59 -15.57,-48.85 -13.57,-75.55 -0.5,-2.33 0.53,-0.42 -0.96,-1.83 -2.31,3.44 -10.06,7.69 -14.64,11.06 -20.15,14.82 -6.25,8.32 -12.2,12.99 -13.89,4.54 -30.81,7.02 -45.3,9.66 -8.83,1.61 -12.65,4.01 -17.65,9.98 -13.43,16.02 -19.14,38.26 -25.15,58.02 -1.2,3.95 -10.17,43.19 -10.67,43.84z"/>
   <path class="fil2" d="M112.73 174.81c-6.98,8.64 -5.54,20.82 -1.55,31.3 8.43,22.18 13.49,12.68 16.39,22.64 8.64,29.62 11.7,16.63 12.96,45.78 0.29,6.54 2.03,15.66 -1.23,17.09 4.57,-0.6 0.05,2.84 2.83,9.45 4.33,10.32 25.43,21.87 35.85,26.01 7.05,2.79 10.28,4.39 14.09,10.41l8.41 0.07c3.67,-5.91 7.1,-7.61 14.01,-10.42 10.39,-4.22 31.62,-15.65 36.04,-25.87 1.9,-4.4 -0.32,-8.12 2.8,-9.77 -3.1,-1.5 -1.66,-10.03 -1.59,-16.96 0.16,-15.78 8.76,-20.15 15.64,-44.11 2.97,-10.39 3.07,-4.24 8.91,-10.16 9.06,-9.19 14.56,-29.44 7.77,-44.89 -4.63,-0.09 -6.17,1.44 -8.62,4.03 -2.11,2.23 -3.68,5.39 -5.58,6.42 -0.23,-13.39 0.03,-30.27 -7.75,-39.16 -5.31,-6.08 -9.92,-3.67 -17.61,-0.99 -6.26,2.19 -12.99,3.09 -19.72,3.1 -42.66,0.11 -65.62,-26.95 -65.76,-27.01 -13.5,0.13 -23.5,12.41 -27.8,22.01 -7.35,16.38 -5.04,24.52 -7.88,41.72 -1.54,-2.79 -2.11,-3.95 -4.19,-6.46 -2.15,-2.62 -2.23,-3.38 -6.42,-4.23z"/>
   <path class="fil3" d="M284.06 175.38c6.79,15.45 1.29,35.7 -7.77,44.89 -5.84,5.92 -5.94,-0.23 -8.91,10.16 -6.88,23.96 -15.48,28.33 -15.64,44.11 -0.07,6.93 -1.51,15.46 1.59,16.96l2.28 1.42c3.79,1.25 4.58,2.61 7.82,4.9 1.42,1 2.23,1.4 4.04,2.6l8.87 6.46c0.17,0.11 0.39,0.27 0.56,0.38l1.75 1.1c10.91,6.99 -6.89,7.5 26.86,13.23 6.75,1.15 16.21,2.84 23.5,4.38 11.16,2.36 17.31,6.98 22.92,17.63 10.02,19.02 7.94,17.86 14.81,33.65l15.58 60.72c3.11,1.14 4.29,0.7 8.27,0.66l0 -226.37 -58.04 -55c-7.11,-6.88 -54.23,-52.24 -58.53,-54.3 0.44,3.24 4.28,12.18 5.43,16.06 7.12,24.03 2.98,48.64 4.61,56.36z"/>
   <path class="fil1" d="M112.73 174.81c4.19,0.85 4.27,1.61 6.42,4.23 2.08,2.51 2.65,3.67 4.19,6.46 2.84,-17.2 0.53,-25.34 7.88,-41.72 4.3,-9.6 14.3,-21.88 27.8,-22.01 0.14,0.06 23.1,27.12 65.76,27.01 6.73,-0.01 13.46,-0.91 19.72,-3.1 7.69,-2.68 12.3,-5.09 17.61,0.99 7.78,8.89 7.52,25.77 7.75,39.16 1.9,-1.03 3.47,-4.19 5.58,-6.42 2.45,-2.59 3.99,-4.12 8.62,-4.03 -1.63,-7.72 2.51,-32.33 -4.61,-56.36 -1.15,-3.88 -4.99,-12.82 -5.43,-16.06 -4.88,-8.16 -9.62,-13.73 -18.55,-19.17 -8.59,-5.23 -16.41,-8.36 -26.94,-11.17 -27.65,-7.38 -55.14,-6.58 -77.65,9.85 -3.53,2.58 -9.24,3.12 -13.6,5.5 -37.42,20.39 -22.37,61.73 -24.55,86.84z"/>
   <path class="fil4" d="M177.48 438.2l42.64 0.31 1.72 -4.61c-1.54,-0.87 -1.31,1.33 -2.53,-6.96 -2.17,-14.66 -11.24,-50.88 -7.01,-60.9l16.46 -4.31c-2,-6.22 -6.03,-11.66 -9.59,-16.75 -2.14,-3.06 -2.71,-3.73 -7.96,-5.54 -3.53,-1.21 -7.02,-1.38 -10.73,-1.88l-8.41 -0.07c-16.74,1.67 -13.38,-1.42 -22.54,13.36 -1.81,2.92 -5.86,9.77 -6.69,13.08 22.7,3.76 21.4,-0.57 17.91,36.44 -1.13,12.06 -2.91,25.79 -3.27,37.83z"/>
   <path class="fil5" d="M135.98 294.26c-2,26.7 6.66,51.96 13.57,75.55l22.79 68.63 5.14 -0.24c0.36,-12.04 2.14,-25.77 3.27,-37.83 3.49,-37.01 4.79,-32.68 -17.91,-36.44 0.83,-3.31 4.88,-10.16 6.69,-13.08 9.16,-14.78 5.8,-11.69 22.54,-13.36 -3.81,-6.02 -7.04,-7.62 -14.09,-10.41 -10.42,-4.14 -31.52,-15.69 -35.85,-26.01 -2.78,-6.61 1.74,-10.05 -2.83,-9.45 -3.53,1.68 -0.77,-0.22 -3.32,2.64z"/>
   <path class="fil5" d="M200.48 337.56c3.71,0.5 7.2,0.67 10.73,1.88 5.25,1.81 5.82,2.48 7.96,5.54 3.56,5.09 7.59,10.53 9.59,16.75l-16.46 4.31c-4.23,10.02 4.84,46.24 7.01,60.9 1.22,8.29 0.99,6.09 2.53,6.96 1.93,-9.02 7.95,-23.69 11.14,-32.99 3.85,-11.26 7.37,-22.52 10.77,-33.93 5.1,-17.14 17.32,-55.89 11.86,-74.06l-2.28 -1.42c-3.12,1.65 -0.9,5.37 -2.8,9.77 -4.42,10.22 -25.65,21.65 -36.04,25.87 -6.91,2.81 -10.34,4.51 -14.01,10.42z"/>
  </g>
 </g>
</svg>
