<?xml version="1.0" encoding="UTF-8"?>
<!DOCTYPE svg PUBLIC "-//W3C//DTD SVG 1.1//EN" "http://www.w3.org/Graphics/SVG/1.1/DTD/svg11.dtd">
<!-- Creator: CorelDRAW 2018 (64-Bit) -->
<svg xmlns="http://www.w3.org/2000/svg" xml:space="preserve" width="400px" height="450px" version="1.1" style="shape-rendering:geometricPrecision; text-rendering:geometricPrecision; image-rendering:optimizeQuality; fill-rule:evenodd; clip-rule:evenodd"
viewBox="0 0 400 450"
 xmlns:xlink="http://www.w3.org/1999/xlink">
 <defs>
  <style type="text/css">
   <![CDATA[
    .fil4 {fill:#434344}
    .fil3 {fill:#567C27}
    .fil5 {fill:#855215}
    .fil0 {fill:#88B94E}
    .fil1 {fill:#A76529}
    .fil6 {fill:#D85865}
    .fil7 {fill:#EEE5D3}
    .fil8 {fill:#FBFDFD}
    .fil2 {fill:#FEE9BA}
   ]]>
  </style>
 </defs>
 <g id="Слой_x0020_1">
  <metadata id="CorelCorpID_0Corel-Layer"/>
  <g id="_2237865229504">
   <path class="fil0" d="M9.41 439.41l10.35 0c1.36,-12.48 6.14,-29.97 9.22,-41.3 3.75,-13.78 7.74,-25.61 13.21,-37.52 4.18,-9.09 12,-24.6 22.99,-27.51 12.97,-3.45 29.12,-5.78 42.36,-8.69l12.69 -3.18c3.36,-3.73 9.12,-8.42 12.77,-11.68 2.53,-2.25 3.99,-3.68 6.2,-6.21 2.73,-3.11 2.67,-4.27 7.12,-5.36 2.33,-29.45 -4.05,-35.2 -13.16,-61.38 -2.41,-6.94 -9.66,-2.51 -16.02,-22.01 -2.55,-7.8 -6.88,-27.65 4.63,-29.13l-2.3 -1.42c-1.59,-27.11 -5.98,-48.28 7.85,-68.87 5.27,-7.83 11.76,-13.27 23.29,-16.75 7.17,-2.16 10.04,-8.09 26.17,-12.84 21.74,-6.41 47.58,-2.89 67.13,5.09 21.05,8.59 30.53,18.32 37.13,41.87 3.16,2.39 4.94,4.23 7.44,6.84 2.49,2.61 4.65,4.63 6.55,6.35 3.11,4.9 7.79,8.17 11.97,12.31 4.22,4.19 7.71,7.56 11.86,11.93l23.64 23.11c5.04,5.16 43.07,43.58 48.09,46.49l0 -168.2 0 -60.77 -381.18 0 0 428.83z"/>
   <path class="fil1" d="M19.76 439.41l359.98 0c-2.77,-19.45 -13.6,-58.99 -21.83,-76.93 -17.95,-39.19 -24.94,-27.53 -62.16,-37.13 -4.43,1.51 -1.44,-1.93 -3.23,4.77 -9.15,34.42 -33.34,61.31 -61.72,81.05 -5.33,3.71 -24.85,16.81 -30.49,19.12 -4.33,1.77 -5.29,0.18 -9.69,-2.39l-23.04 -14.17c-27.31,-18.26 -57.62,-52.66 -60.04,-89.34 -13.24,2.91 -29.39,5.24 -42.36,8.69 -10.99,2.91 -18.81,18.42 -22.99,27.51 -5.47,11.91 -9.46,23.74 -13.21,37.52 -3.08,11.33 -7.86,28.82 -9.22,41.3z"/>
   <path class="fil2" d="M121.77 185.44c-11.51,1.48 -7.18,21.33 -4.63,29.13 6.36,19.5 13.61,15.07 16.02,22.01 9.11,26.18 15.49,31.93 13.16,61.38 0.41,9.24 1.3,12.26 7.03,17.51l9.13 6.96c1.42,0.82 2.25,1.05 3.89,2.01l23.26 11.18c3.41,1.9 0.54,-0.3 3.04,2.48 1.99,2.19 1.21,1.88 3.22,3.51l-2.7 1.66 12.3 0.02c0.44,-6.69 5.76,-7.92 12.41,-10.64 13.39,-5.45 5.97,-2.3 15.14,-7.69 0.65,-0.39 3.06,-1.59 3.91,-2.12l3.19 -2.42c5.84,-4.49 6.19,-3.95 11.57,-11.25 2.93,-3.97 1.12,-3.48 2.04,-11.29 -1.12,-39.38 3.07,-18.7 15.7,-60.61 2.46,-8.18 3.52,-1.38 9.94,-10.07 8.98,-12.16 13.54,-41.63 2.56,-41.41 -6.81,3.29 -5.45,2.68 -8.01,10.21 -1.58,4.68 -3.06,8.21 -5.33,12.71l-1.13 -2.61c-0.04,-0.14 -0.51,-2.91 -0.56,-3.18 -1.79,-10.67 -6.02,-26.68 -15.17,-32.25 1.58,7.77 2.54,10.32 2.06,19.7 -3.59,-0.36 -15.72,-10.74 -19.05,-13.48 -3,-2.46 -15.41,-12.96 -19.38,-14.36 2.12,5.76 9.7,11.22 9.86,21.07l-27.4 -20.28c-21.54,-18.02 -14.4,-20.29 -27.51,-14.68 -30.41,13 -35.39,23.4 -33.89,61.5 -4.19,-3.44 -5.04,-8.31 -7.01,-13.61 -2.3,-6.21 -4.24,-7.68 -7.66,-11.09z"/>
   <path class="fil3" d="M281.95 185.79c10.98,-0.22 6.42,29.25 -2.56,41.41 -6.42,8.69 -7.48,1.89 -9.94,10.07 -12.63,41.91 -16.82,21.23 -15.7,60.61 4.86,1.29 10.32,8.23 13.42,11.48 3.62,3.79 10.88,8.06 13.94,12.59 2.86,-0.09 11.6,2.18 14.64,3.4 37.22,9.6 44.21,-2.06 62.16,37.13 8.23,17.94 19.06,57.48 21.83,76.93l10.85 0 0 -199.86c-5.02,-2.91 -43.05,-41.33 -48.09,-46.49l-23.64 -23.11c-4.15,-4.37 -7.64,-7.74 -11.86,-11.93 -4.18,-4.14 -8.86,-7.41 -11.97,-12.31 -1.9,-1.72 -4.06,-3.74 -6.55,-6.35 -2.5,-2.61 -4.28,-4.45 -7.44,-6.84 2.53,14.5 5.97,33.08 3.55,48.64 -0.59,3.83 -0.06,2.63 -2.64,4.63z"/>
   <path class="fil4" d="M121.77 185.44c3.42,3.41 5.36,4.88 7.66,11.09 1.97,5.3 2.82,10.17 7.01,13.61 -1.5,-38.1 3.48,-48.5 33.89,-61.5 13.11,-5.61 5.97,-3.34 27.51,14.68l27.4 20.28c-0.16,-9.85 -7.74,-15.31 -9.86,-21.07 3.97,1.4 16.38,11.9 19.38,14.36 3.33,2.74 15.46,13.12 19.05,13.48 0.48,-9.38 -0.48,-11.93 -2.06,-19.7 9.15,5.57 13.38,21.58 15.17,32.25 0.05,0.27 0.52,3.04 0.56,3.18l1.13 2.61c2.27,-4.5 3.75,-8.03 5.33,-12.71 2.56,-7.53 1.2,-6.92 8.01,-10.21 2.58,-2 2.05,-0.8 2.64,-4.63 2.42,-15.56 -1.02,-34.14 -3.55,-48.64 -6.6,-23.55 -16.08,-33.28 -37.13,-41.87 -19.55,-7.98 -45.39,-11.5 -67.13,-5.09 -16.13,4.75 -19,10.68 -26.17,12.84 -11.53,3.48 -18.02,8.92 -23.29,16.75 -13.83,20.59 -9.44,41.76 -7.85,68.87l2.3 1.42z"/>
   <path class="fil5" d="M107.54 324.39c2.42,36.68 32.73,71.08 60.04,89.34l23.04 14.17c4.4,2.57 5.36,4.16 9.69,2.39 5.64,-2.31 25.16,-15.41 30.49,-19.12 28.38,-19.74 52.57,-46.63 61.72,-81.05 1.79,-6.7 -1.2,-3.26 3.23,-4.77 -3.04,-1.22 -11.78,-3.49 -14.64,-3.4l0.26 0.57c-1.9,10.14 -5.21,18.87 -9.38,26.88 -4.65,8.92 -9.73,14.76 -14.6,21.61 -5.24,7.39 -28.66,29.38 -38.43,33.94 -2.9,2.83 -11.74,7.54 -16.51,10.22 -4.11,2.32 -6.49,1.9 -10.41,-0.24 -3.29,-1.8 -6.53,-3.11 -8.94,-5.27 -13.77,-6.28 -31.79,-23.75 -39.69,-33.74 -5.28,-6.67 -10.35,-14.23 -14.35,-22.79 -3.05,-6.53 -9.13,-20.23 -7.89,-27.83 -0.13,-0.22 -0.38,-0.77 -0.41,-0.65 -0.04,0.13 -0.3,-0.52 -0.33,-0.7 -0.36,-1.88 -0.26,-0.86 -0.2,-2.74l-12.69 3.18z"/>
   <path class="fil6" d="M167.91 368.97l15.82 2.04c4.49,10.17 3.55,6.6 2.43,19.48 -0.28,3.14 -0.66,7.04 -0.91,10.17 -0.55,6.79 0.31,9.47 -2.15,9 2.41,2.16 5.65,3.47 8.94,5.27 3.92,2.14 6.3,2.56 10.41,0.24 4.77,-2.68 13.61,-7.39 16.51,-10.22 -1.7,-2.18 -1.89,-6.12 -2.32,-8.9 -2.01,-12.98 -4.16,-15.11 -1.17,-25.88 5.53,-0.89 11.66,-3.28 15.94,-3.68 -1.3,-4.74 -6.46,-12.76 -9.03,-16.18 -3.47,-4.62 -10.09,-6.34 -16.89,-7.02l-12.3 -0.02c-12.7,1.79 -10.56,0.41 -13.45,4.45 -3.51,4.89 -11.43,16.21 -11.83,21.25z"/>
   <path class="fil7" d="M205.49 343.29c6.8,0.68 13.42,2.4 16.89,7.02 2.57,3.42 7.73,11.44 9.03,16.18 2.99,2.55 3.98,7.32 5.61,10.13 2.75,4.76 -0.21,1.57 3,3.09 5.21,-3.88 37.4,-54.64 41.35,-57.19l-0.26 -0.57c-3.06,-4.53 -10.32,-8.8 -13.94,-12.59 -3.1,-3.25 -8.56,-10.19 -13.42,-11.48 -0.92,7.81 0.89,7.32 -2.04,11.29 -5.38,7.3 -5.73,6.76 -11.57,11.25l-3.19 2.42c-0.85,0.53 -3.26,1.73 -3.91,2.12 -9.17,5.39 -1.75,2.24 -15.14,7.69 -6.65,2.72 -11.97,3.95 -12.41,10.64z"/>
   <path class="fil7" d="M120.23 321.21c-0.06,1.88 -0.16,0.86 0.2,2.74 0.03,0.18 0.29,0.83 0.33,0.7 0.03,-0.12 0.28,0.43 0.41,0.65l0.69 -2.1c2.15,4.58 35.42,54.23 38.12,56.51 2.09,-0.96 1.47,-0.64 2.69,-2.38 1.7,-2.44 1.47,-5.27 5.24,-8.36 0.4,-5.04 8.32,-16.36 11.83,-21.25 2.89,-4.04 0.75,-2.66 13.45,-4.45l2.7 -1.66c-2.01,-1.63 -1.23,-1.32 -3.22,-3.51 -2.5,-2.78 0.37,-0.58 -3.04,-2.48l-23.26 -11.18c-1.64,-0.96 -2.47,-1.19 -3.89,-2.01l-9.13 -6.96c-5.73,-5.25 -6.62,-8.27 -7.03,-17.51 -4.45,1.09 -4.39,2.25 -7.12,5.36 -2.21,2.53 -3.67,3.96 -6.2,6.21 -3.65,3.26 -9.41,7.95 -12.77,11.68z"/>
   <path class="fil8" d="M121.17 325.3c-1.24,7.6 4.84,21.3 7.89,27.83 4,8.56 9.07,16.12 14.35,22.79 7.9,9.99 25.92,27.46 39.69,33.74 2.46,0.47 1.6,-2.21 2.15,-9 0.25,-3.13 0.63,-7.03 0.91,-10.17 1.12,-12.88 2.06,-9.31 -2.43,-19.48l-15.82 -2.04c-3.77,3.09 -3.54,5.92 -5.24,8.36 -1.22,1.74 -0.6,1.42 -2.69,2.38 -2.7,-2.28 -35.97,-51.93 -38.12,-56.51l-0.69 2.1z"/>
   <path class="fil8" d="M231.41 366.49c-4.28,0.4 -10.41,2.79 -15.94,3.68 -2.99,10.77 -0.84,12.9 1.17,25.88 0.43,2.78 0.62,6.72 2.32,8.9 9.77,-4.56 33.19,-26.55 38.43,-33.94 4.87,-6.85 9.95,-12.69 14.6,-21.61 4.17,-8.01 7.48,-16.74 9.38,-26.88 -3.95,2.55 -36.14,53.31 -41.35,57.19 -3.21,-1.52 -0.25,1.67 -3,-3.09 -1.63,-2.81 -2.62,-7.58 -5.61,-10.13z"/>
  </g>
 </g>
</svg>
