<?xml version="1.0" encoding="UTF-8"?>
<!DOCTYPE svg PUBLIC "-//W3C//DTD SVG 1.1//EN" "http://www.w3.org/Graphics/SVG/1.1/DTD/svg11.dtd">
<!-- Creator: CorelDRAW 2018 (64-Bit) -->
<svg xmlns="http://www.w3.org/2000/svg" xml:space="preserve" width="400px" height="450px" version="1.1" style="shape-rendering:geometricPrecision; text-rendering:geometricPrecision; image-rendering:optimizeQuality; fill-rule:evenodd; clip-rule:evenodd"
viewBox="0 0 400 450"
 xmlns:xlink="http://www.w3.org/1999/xlink">
 <defs>
  <style type="text/css">
   <![CDATA[
    .fil1 {fill:#317850}
    .fil3 {fill:#444444}
    .fil5 {fill:#545454}
    .fil2 {fill:#54A77B}
    .fil4 {fill:#6A6A6A}
    .fil6 {fill:#D85865}
    .fil0 {fill:#FDD1A9}
    .fil7 {fill:#FEFEFE}
   ]]>
  </style>
 </defs>
 <g id="Слой_x0020_1">
  <metadata id="CorelCorpID_0Corel-Layer"/>
  <g id="_2237483441616">
   <path class="fil0" d="M118.08 177.2c-3.47,-0.12 -3.36,-0.57 -5.11,2.66 -0.64,1.19 -1.34,3.9 -1.57,5.19 -0.85,4.83 -0.34,8.97 0.11,13.76 1.32,8 5.07,16.97 8.94,21.86 5.05,6.37 6.66,3.65 8.95,7.28l8.37 23.05c1.34,3.26 4.24,8.24 4.89,11.32 1.51,7.25 1.41,23.79 1.55,31.89 0.83,9.64 -0.03,10.56 6.2,16.58 4.8,4.62 8.27,7.3 14.07,10.78 14.82,8.89 27.68,10.04 30.23,19.35l10.02 0.21c3.07,-11.91 26.26,-11.67 44.32,-29.91 1.71,-1.73 4.26,-4.71 5.28,-7.18 2.81,-6.83 -1.46,-7.75 3.03,-9.71l-2.2 -1.31c0.73,-21.91 -2.05,-18.96 5.24,-33.31 4.28,-8.41 8.24,-18.03 11.18,-28 2.48,-8.39 3.8,-4.16 9.09,-9.91 8.92,-9.7 15.08,-32.67 6.76,-44.63 -10.73,0.22 -8.55,8.5 -13.61,10.36 -0.38,-10.47 -0.11,-23.42 -3.79,-32.55 -5.1,-12.65 -10.33,-11.09 -23.34,-7.24 -19.73,5.83 -42.62,1.03 -59.25,-6.41 -26.53,-11.88 -19.88,-22.1 -33.96,-16.26 -22.1,9.17 -25.82,38.46 -26.96,62.11 -2.69,-3.52 -3.89,-7.59 -8.44,-9.98z"/>
   <path class="fil1" d="M287.43 177.17c8.32,11.96 2.16,34.93 -6.76,44.63 -5.29,5.75 -6.61,1.52 -9.09,9.91 -2.94,9.97 -6.9,19.59 -11.18,28 -7.29,14.35 -4.51,11.4 -5.24,33.31l2.2 1.31 2.63 2.15c4.91,1.5 11.37,6.92 15.67,10.12 2.68,1.99 4.66,3.04 7.29,5.05 6.05,4.61 1.25,4.92 4.58,7.46 7.64,1.78 14.3,4.19 22.15,5.64 32.68,6.03 37.32,3.07 51.41,30.98 11.24,22.29 19.9,56.92 24.89,83.68l4.61 0 0 -230.49c-2.91,-0.6 -1.21,-0.2 -2.78,-1.18 -0.02,-0.01 -2.01,-1.76 -2.02,-1.77 -1.24,-1.2 -2.16,-2.16 -3.36,-3.34l-48.41 -45.9c-6.53,-6.28 -50.96,-49.51 -56.09,-52.12 0.87,4.8 3.87,10.33 5.4,15.95 8.19,30.12 2.87,50.89 4.1,56.61z"/>
   <path class="fil2" d="M9.41 277.66l0 161.75 3.59 0c3.14,-25.45 19.06,-84.38 35.91,-101.53 14.07,-14.32 38.84,-8.44 63.8,-19.19 -0.38,-6.31 0.86,-4.64 11.37,-12.37 3.67,-2.7 11.06,-9.13 15.48,-9.81 0.88,-1.02 0.63,-2.15 4.65,-2.3 -0.14,-8.1 -0.04,-24.64 -1.55,-31.89 -0.65,-3.08 -3.55,-8.06 -4.89,-11.32l-8.37 -23.05c-2.29,-3.63 -3.9,-0.91 -8.95,-7.28 -3.87,-4.89 -7.62,-13.86 -8.94,-21.86 -0.45,-4.79 -0.96,-8.93 -0.11,-13.76 0.23,-1.29 0.93,-4 1.57,-5.19 1.75,-3.23 1.64,-2.78 5.11,-2.66 -3.22,-2.57 -2.21,-2.5 -2.75,-11.45 -0.71,-11.62 -1.9,-30.29 -0.08,-40.59 3.7,-20.89 16.29,-33.79 33.07,-38.76 4.93,-1.46 4.75,-2.13 9.03,-4.99 29.45,-19.7 61.33,-8.36 71.06,-9.21 0.22,0.17 0.56,0.1 0.69,0.44l14.34 5.08c18.27,6.35 24.47,13.17 34.49,26.89 5.13,2.61 49.56,45.84 56.09,52.12l48.41 45.9c1.2,1.18 2.12,2.14 3.36,3.34 0.01,0.01 2,1.76 2.02,1.77 1.57,0.98 -0.13,0.58 2.78,1.18l0 -198.34 -91.34 0 -289.84 0 0 267.08z"/>
   <path class="fil3" d="M118.08 177.2c4.55,2.39 5.75,6.46 8.44,9.98 1.14,-23.65 4.86,-52.94 26.96,-62.11 14.08,-5.84 7.43,4.38 33.96,16.26 16.63,7.44 39.52,12.24 59.25,6.41 13.01,-3.85 18.24,-5.41 23.34,7.24 3.68,9.13 3.41,22.08 3.79,32.55 5.06,-1.86 2.88,-10.14 13.61,-10.36 -1.23,-5.72 4.09,-26.49 -4.1,-56.61 -1.53,-5.62 -4.53,-11.15 -5.4,-15.95 -10.02,-13.72 -16.22,-20.54 -34.49,-26.89l-14.34 -5.08c-0.13,-0.34 -0.47,-0.27 -0.69,-0.44 -9.73,0.85 -41.61,-10.49 -71.06,9.21 -4.28,2.86 -4.1,3.53 -9.03,4.99 -16.78,4.97 -29.37,17.87 -33.07,38.76 -1.82,10.3 -0.63,28.97 0.08,40.59 0.54,8.95 -0.47,8.88 2.75,11.45z"/>
   <path class="fil4" d="M274.9 439.41l111.08 0c-4.99,-26.76 -13.65,-61.39 -24.89,-83.68 -14.09,-27.91 -18.73,-24.95 -51.41,-30.98 -7.85,-1.45 -14.51,-3.86 -22.15,-5.64 -1.1,7.97 3.44,40.03 2.2,56.46 -5.55,2.76 -15.79,1.87 -20.86,5.71 4.77,4.26 15.5,7.83 23.44,9.66 -0.68,9.55 -12.15,38.57 -17.41,48.47z"/>
   <path class="fil4" d="M13 439.41l111.28 0c-1.02,-4.5 -15.35,-32.03 -17.19,-47.64l23.82 -10.05c-7.18,-1.56 -16.02,0.76 -22.35,-2.34 -0.98,-7.18 2.08,-55.12 4.15,-60.69 -24.96,10.75 -49.73,4.87 -63.8,19.19 -16.85,17.15 -32.77,76.08 -35.91,101.53z"/>
   <path class="fil5" d="M112.71 318.69c-2.07,5.57 -5.13,53.51 -4.15,60.69 6.33,3.1 15.17,0.78 22.35,2.34l-23.82 10.05c1.84,15.61 16.17,43.14 17.19,47.64l50.37 0c-2.87,-10.82 -8.04,-23.49 -11.7,-34.35 -3.86,-11.45 -7.33,-22.35 -10.91,-33.91 -5.6,-18.04 -16.85,-55.17 -12.48,-74.64 -4.42,0.68 -11.81,7.11 -15.48,9.81 -10.51,7.73 -11.75,6.06 -11.37,12.37z"/>
   <path class="fil5" d="M225.27 437.47l-0.3 1.94 49.93 0c5.26,-9.9 16.73,-38.92 17.41,-48.47 -7.94,-1.83 -18.67,-5.4 -23.44,-9.66 5.07,-3.84 15.31,-2.95 20.86,-5.71 1.24,-16.43 -3.3,-48.49 -2.2,-56.46 -3.33,-2.54 1.47,-2.85 -4.58,-7.46 -2.63,-2.01 -4.61,-3.06 -7.29,-5.05 -4.3,-3.2 -10.76,-8.62 -15.67,-10.12 3.58,22.17 -6.54,54 -12.51,74.14 -3.5,11.78 -7.05,21.88 -10.69,33.23 -3.55,11.06 -8.32,22.58 -11.52,33.62z"/>
   <path class="fil6" d="M180.97 439.41l44 0 0.3 -1.94c-1.77,-0.63 -0.89,0.09 -1.7,-2.51l-7.97 -47.37c-1.56,-9.49 -2.23,-8.82 -0.04,-18.43 5.78,-1.59 12.59,-1.93 16.59,-5.03 -6.06,-15.46 -14.23,-24.14 -27.42,-23l-10.02 -0.21c-2.73,-0.18 -9.76,0.18 -12.12,0.94 -4.26,1.39 -1.25,-0.43 -3.65,3.11 -17.73,26.19 -16,22.76 4.08,24.82 2.54,8.26 3.99,2.93 2.83,14.66l-4.88 54.96z"/>
   <path class="fil7" d="M139.56 296.51c-4.37,19.47 6.88,56.6 12.48,74.64 3.58,11.56 7.05,22.46 10.91,33.91 3.66,10.86 8.83,23.53 11.7,34.35l6.32 0 4.88 -54.96c1.16,-11.73 -0.29,-6.4 -2.83,-14.66 -20.08,-2.06 -21.81,1.37 -4.08,-24.82 2.4,-3.54 -0.61,-1.72 3.65,-3.11 2.36,-0.76 9.39,-1.12 12.12,-0.94 -2.55,-9.31 -15.41,-10.46 -30.23,-19.35 -5.8,-3.48 -9.27,-6.16 -14.07,-10.78 -6.23,-6.02 -5.37,-6.94 -6.2,-16.58 -4.02,0.15 -3.77,1.28 -4.65,2.3z"/>
   <path class="fil7" d="M204.73 341.13c13.19,-1.14 21.36,7.54 27.42,23 -4,3.1 -10.81,3.44 -16.59,5.03 -2.19,9.61 -1.52,8.94 0.04,18.43l7.97 47.37c0.81,2.6 -0.07,1.88 1.7,2.51 3.2,-11.04 7.97,-22.56 11.52,-33.62 3.64,-11.35 7.19,-21.45 10.69,-33.23 5.97,-20.14 16.09,-51.97 12.51,-74.14l-2.63 -2.15c-4.49,1.96 -0.22,2.88 -3.03,9.71 -1.02,2.47 -3.57,5.45 -5.28,7.18 -18.06,18.24 -41.25,18 -44.32,29.91z"/>
  </g>
 </g>
</svg>
