<?xml version="1.0" encoding="UTF-8"?>
<!DOCTYPE svg PUBLIC "-//W3C//DTD SVG 1.1//EN" "http://www.w3.org/Graphics/SVG/1.1/DTD/svg11.dtd">
<!-- Creator: CorelDRAW 2018 (64-Bit) -->
<svg xmlns="http://www.w3.org/2000/svg" xml:space="preserve" width="400px" height="450px" version="1.1" style="shape-rendering:geometricPrecision; text-rendering:geometricPrecision; image-rendering:optimizeQuality; fill-rule:evenodd; clip-rule:evenodd"
viewBox="0 0 400 450"
 xmlns:xlink="http://www.w3.org/1999/xlink">
 <defs>
  <style type="text/css">
   <![CDATA[
    .fil1 {fill:#434444}
    .fil4 {fill:#545454}
    .fil2 {fill:#567C27}
    .fil0 {fill:#87B84D}
    .fil5 {fill:#F8F6F7}
    .fil3 {fill:#FED2A9}
   ]]>
  </style>
 </defs>
 <g id="Слой_x0020_1">
  <metadata id="CorelCorpID_0Corel-Layer"/>
  <g id="_2237834865056">
   <path class="fil0" d="M9.41 439.41l26.4 0c1.15,-7.8 11.24,-42.62 14.05,-52.01 7.01,-23.37 13.55,-51.7 28.89,-70.23 7,-8.45 11.1,-7.95 23.28,-10.16 11.08,-2.01 30.3,-4.91 40.67,-8.77 4.69,-1.75 7.58,-4.17 11.72,-5.57l2.37 -5.61c-26.44,-2.86 -35.25,2.66 -47.51,-13.29 -9.95,-12.95 -12.79,-27.71 -11.96,-47.72 1.47,-35.58 19.05,-115.28 54.21,-125.86 14.93,-4.5 3.71,-2.75 17.72,-11.68 28.69,-18.3 63.85,-5.05 86.5,16.9 2.92,2.83 12.4,13.01 13.82,15.99 5.32,2.71 28.17,26.42 34.1,32.34 4.32,4.32 31.55,31.62 33.44,32.21 2.39,4.72 51.39,52.03 53.48,53.35l0 -107.2 0 -121.52 -381.18 0 0 428.83z"/>
   <path class="fil1" d="M156.79 287.06l1.82 -2.22c2.12,-4.17 2.34,-11.19 2.54,-16.98 0.25,-7.2 -1.98,-10.15 -4.71,-14.49 -4.89,-7.77 -9.17,-16.15 -12.73,-25.5 -1.26,-3.31 -3.06,-11.74 -5.23,-13.77 -2.94,-2.75 -4.48,-1.11 -9.15,-9.9 -4.37,-8.21 -8.52,-24.62 -1.75,-32 4.09,1.98 4.74,4.13 7.16,7.78 2.73,-25.95 5.13,-50.4 30,-54.59 3.56,2.41 5.77,5.84 9.75,8.87 32.79,24.91 63.5,22.65 79.75,34.61 1.69,1.24 3.56,3.15 4.61,4.9l2.08 4.69c1.03,2.11 0.21,0.78 1.15,1.98 1.44,-3.11 3.03,-7.49 5.58,-9.59 10.26,3.47 4.91,23.65 1.7,31.1 -3.49,8.09 -4.81,8.23 -9.44,11.51 -3.37,2.38 -7.88,23.64 -20.36,42.51 -4.61,6.98 -5.69,11.48 -1.56,24.5 1.21,3.81 2.44,4.12 4.21,6.19l0.45 0.2c2.22,-0.73 0.95,-0.72 3.06,-0.19 25.54,-4.54 34.2,0.82 42.99,-17.78 16.44,-34.83 8.95,-91.57 -7.93,-127.58 -3.42,-7.31 -8.31,-13.51 -11.21,-19.91 -1.42,-2.98 -10.9,-13.16 -13.82,-15.99 -22.65,-21.95 -57.81,-35.2 -86.5,-16.9 -14.01,8.93 -2.79,7.18 -17.72,11.68 -35.16,10.58 -52.74,90.28 -54.21,125.86 -0.83,20.01 2.01,34.77 11.96,47.72 12.26,15.95 21.07,10.43 47.51,13.29z"/>
   <path class="fil2" d="M245.72 286.67c0.21,3.21 2.28,3.62 8.86,6.59 18.92,8.56 53,9.5 60.92,16.43 21.55,18.86 34.02,78.3 42.51,102.31 2.51,7.12 7.08,19.98 7.56,27.41l25.02 0 0 -200.11c-2.09,-1.32 -51.09,-48.63 -53.48,-53.35 -1.89,-0.59 -29.12,-27.89 -33.44,-32.21 -5.93,-5.92 -28.78,-29.63 -34.1,-32.34 2.9,6.4 7.79,12.6 11.21,19.91 16.88,36.01 24.37,92.75 7.93,127.58 -8.79,18.6 -17.45,13.24 -42.99,17.78z"/>
   <path class="fil3" d="M158.61 284.84c2.47,3.43 -1.66,14.38 21.8,29.3 8.15,5.18 8.48,4.88 11.18,14.5 1.58,5.64 3.72,15.46 6.5,19.11 2.06,-1.24 3.09,-7.79 10.07,-15.46 4.9,-5.38 7.03,-9.06 12.88,-13.81 7.8,-6.35 18.15,-15.75 19.55,-25.93 0.65,-4.72 0.02,-4.06 1.62,-5.89 -1.77,-2.07 -3,-2.38 -4.21,-6.19 -4.13,-13.02 -3.05,-17.52 1.56,-24.5 12.48,-18.87 16.99,-40.13 20.36,-42.51 4.63,-3.28 5.95,-3.42 9.44,-11.51 3.21,-7.45 8.56,-27.63 -1.7,-31.1 -2.55,2.1 -4.14,6.48 -5.58,9.59 -0.94,-1.2 -0.12,0.13 -1.15,-1.98l-2.08 -4.69c-1.05,-1.75 -2.92,-3.66 -4.61,-4.9 -16.25,-11.96 -46.96,-9.7 -79.75,-34.61 -3.98,-3.03 -6.19,-6.46 -9.75,-8.87 -24.87,4.19 -27.27,28.64 -30,54.59 -2.42,-3.65 -3.07,-5.8 -7.16,-7.78 -6.77,7.38 -2.62,23.79 1.75,32 4.67,8.79 6.21,7.15 9.15,9.9 2.17,2.03 3.97,10.46 5.23,13.77 3.56,9.35 7.84,17.73 12.73,25.5 2.73,4.34 4.96,7.29 4.71,14.49 -0.2,5.79 -0.42,12.81 -2.54,16.98z"/>
   <path class="fil4" d="M35.81 439.41l151 0c-4.47,-15.87 -9.68,-26.22 -15.3,-48.71 -4.33,-17.34 -8.14,-35.5 -10.28,-53.64 -4.49,2.63 -7.77,10.27 -10.21,11.5 -1.48,-21.16 -0.66,-35.92 3.4,-55.89 -4.14,1.4 -7.03,3.82 -11.72,5.57 -10.37,3.86 -29.59,6.76 -40.67,8.77 -12.18,2.21 -16.28,1.71 -23.28,10.16 -15.34,18.53 -21.88,46.86 -28.89,70.23 -2.81,9.39 -12.9,44.21 -14.05,52.01z"/>
   <path class="fil4" d="M242.66 286.86c5.28,10.18 7.52,17.82 9.44,30.77 1.65,11.16 2.93,24.57 2.88,35.92 -2.46,-3.48 -10.47,-15.51 -14.65,-17.04 -0.82,17.28 -4.5,38.56 -8.23,54.93 -4.97,21.83 -11.57,36.59 -14.34,47.97l147.81 0c-0.48,-7.43 -5.05,-20.29 -7.56,-27.41 -8.49,-24.01 -20.96,-83.45 -42.51,-102.31 -7.92,-6.93 -42,-7.87 -60.92,-16.43 -6.58,-2.97 -8.65,-3.38 -8.86,-6.59 -2.11,-0.53 -0.84,-0.54 -3.06,0.19z"/>
   <path class="fil5" d="M156.79 287.06l-2.37 5.61c-4.06,19.97 -4.88,34.73 -3.4,55.89 2.44,-1.23 5.72,-8.87 10.21,-11.5 2.14,18.14 5.95,36.3 10.28,53.64 5.62,22.49 10.83,32.84 15.3,48.71l30.95 0c2.77,-11.38 9.37,-26.14 14.34,-47.97 3.73,-16.37 7.41,-37.65 8.23,-54.93 4.18,1.53 12.19,13.56 14.65,17.04 0.05,-11.35 -1.23,-24.76 -2.88,-35.92 -1.92,-12.95 -4.16,-20.59 -9.44,-30.77l-0.45 -0.2c-1.6,1.83 -0.97,1.17 -1.62,5.89 -1.4,10.18 -11.75,19.58 -19.55,25.93 -5.85,4.75 -7.98,8.43 -12.88,13.81 -6.98,7.67 -8.01,14.22 -10.07,15.46 -2.78,-3.65 -4.92,-13.47 -6.5,-19.11 -2.7,-9.62 -3.03,-9.32 -11.18,-14.5 -23.46,-14.92 -19.33,-25.87 -21.8,-29.3l-1.82 2.22z"/>
  </g>
 </g>
</svg>
