<?xml version="1.0" encoding="UTF-8"?>
<!DOCTYPE svg PUBLIC "-//W3C//DTD SVG 1.1//EN" "http://www.w3.org/Graphics/SVG/1.1/DTD/svg11.dtd">
<!-- Creator: CorelDRAW 2018 (64-Bit) -->
<svg xmlns="http://www.w3.org/2000/svg" xml:space="preserve" width="400px" height="450px" version="1.1" style="shape-rendering:geometricPrecision; text-rendering:geometricPrecision; image-rendering:optimizeQuality; fill-rule:evenodd; clip-rule:evenodd"
viewBox="0 0 400 450"
 xmlns:xlink="http://www.w3.org/1999/xlink">
 <defs>
  <style type="text/css">
   <![CDATA[
    .fil4 {fill:#444444}
    .fil1 {fill:#9B481C}
    .fil0 {fill:#D47E11}
    .fil3 {fill:#DA4551}
    .fil2 {fill:#FED2A9}
    .fil5 {fill:#FEFEFE}
   ]]>
  </style>
 </defs>
 <g id="Слой_x0020_1">
  <metadata id="CorelCorpID_0Corel-Layer"/>
  <g id="_2237629435232">
   <path class="fil0" d="M9.41 439.41l26.59 0c0.97,-7.1 4.83,-19.24 6.73,-25.86 7.75,-27.11 18.87,-75.36 35.33,-94.15 6.87,-7.84 10.24,-7.96 22.4,-10.02 9.76,-1.66 18.17,-3.44 27.19,-5.06 5.27,-0.94 8.52,-1.44 13.13,-3.27 4.59,-1.82 7.17,-3.93 11.59,-5.16 1.26,-2.48 1.66,-5.51 3.85,-7.11 2.99,-6.47 5.43,-21.46 0.35,-28.91 -2.97,-4.35 -10.91,-16.69 -10.15,-20.38 -12.13,-2.66 -29.04,-44.01 -32.35,-61.1 -6.14,-31.75 1.91,-63.14 26.93,-74.32 14.84,-6.63 16.36,-22.56 61.86,-20.62 14.75,0.63 26.14,4.2 37.18,10.07 12.96,6.9 15.1,12.44 24.5,21.48 5.15,3.36 11.28,10.45 16.02,15.14l46.94 46.44c9.23,9.07 50.7,51.62 56.87,54.73l1.25 0.49c3.23,1.69 0.65,4.61 4.97,2.81l0 -224.03 -381.18 0 0 428.83z"/>
   <path class="fil1" d="M250.3 234.75c-5.14,6.91 -9.22,17.37 -14.06,24.61 -4.42,6.6 -4.67,5.41 -3.31,15.74 0.83,6.27 2.62,10.45 5.34,14.42l1.07 -0.29c2.77,1.55 2.18,1.74 4.73,3.23 2.02,1.18 3.56,1.73 5.76,2.71 13.97,6.23 25.5,7.96 40.75,10.71 12.35,2.24 16.26,1.34 23.62,9.8 5.37,6.16 10.1,14.59 13.09,21.2 12.02,26.56 16.91,49.17 25.65,76.4 2.44,7.58 6.38,18.49 7.74,26.13l29.91 0 0 -204.8c-4.32,1.8 -1.74,-1.12 -4.97,-2.81l-1.25 -0.49c-6.17,-3.11 -47.64,-45.66 -56.87,-54.73l-46.94 -46.44c-4.74,-4.69 -10.87,-11.78 -16.02,-15.14 1.82,5 4.37,8.5 6.45,14.39 11.13,31.47 3.25,67.69 -12.93,95.6 -0.03,0.04 -6.69,11.56 -7.29,9.76 -0.04,-0.14 -0.35,0.1 -0.47,0z"/>
   <path class="fil2" d="M146.42 239.49c-0.76,3.69 7.18,16.03 10.15,20.38 5.08,7.45 2.64,22.44 -0.35,28.91 3.01,-1.51 0.84,-0.63 1.72,0.07 -0.32,13.26 12.77,22.66 20.76,27.97 11.55,7.67 8.24,8.45 15.95,32.53l3.25 -3.63c0.93,-1.62 1.4,-2.94 2.24,-4.38 9.18,-15.78 30.32,-28.03 35.88,-41.25 1.59,-3.77 1.17,-5.44 1.56,-8.22 0.38,-2.7 -0.65,-0.98 0.69,-2.35 -2.72,-3.97 -4.51,-8.15 -5.34,-14.42 -1.36,-10.33 -1.11,-9.14 3.31,-15.74 4.84,-7.24 8.92,-17.7 14.06,-24.61 8.24,-23.57 -3.61,-50.04 -21.17,-62.7 -15.02,-10.83 -50.47,-26.61 -56.37,-32.83 -10.19,4.23 -24.66,23.5 -28.89,39.15 -5.27,19.53 -0.44,41.8 2.55,61.12z"/>
   <path class="fil3" d="M36 439.41l148.34 0c-10.6,-34.64 -21.01,-60.09 -24.94,-99.51 -4.27,2.28 -5.86,8.34 -10.1,11.97 -1.67,-18.94 -0.99,-38.17 3.07,-55.98 -4.42,1.23 -7,3.34 -11.59,5.16 -4.61,1.83 -7.86,2.33 -13.13,3.27 -9.02,1.62 -17.43,3.4 -27.19,5.06 -12.16,2.06 -15.53,2.18 -22.4,10.02 -16.46,18.79 -27.58,67.04 -35.33,94.15 -1.9,6.62 -5.76,18.76 -6.73,25.86z"/>
   <path class="fil3" d="M214.81 439.41l145.87 0c-1.36,-7.64 -5.3,-18.55 -7.74,-26.13 -8.74,-27.23 -13.63,-49.84 -25.65,-76.4 -2.99,-6.61 -7.72,-15.04 -13.09,-21.2 -7.36,-8.46 -11.27,-7.56 -23.62,-9.8 -15.25,-2.75 -26.78,-4.48 -40.75,-10.71 -2.2,-0.98 -3.74,-1.53 -5.76,-2.71 -2.55,-1.49 -1.96,-1.68 -4.73,-3.23 4.9,14.17 5.77,11.03 8.87,30.33 1.69,10.48 3.58,25.23 3.2,36 -3.33,-2.97 -8.25,-14.6 -14.43,-17.44 -1.13,17.81 -4.2,36.16 -7.9,53.22 -5.14,23.71 -10.65,33.75 -14.27,48.07z"/>
   <path class="fil4" d="M146.42 239.49c-2.99,-19.32 -7.82,-41.59 -2.55,-61.12 4.23,-15.65 18.7,-34.92 28.89,-39.15 5.9,6.22 41.35,22 56.37,32.83 17.56,12.66 29.41,39.13 21.17,62.7 0.12,0.1 0.43,-0.14 0.47,0 0.6,1.8 7.26,-9.72 7.29,-9.76 16.18,-27.91 24.06,-64.13 12.93,-95.6 -2.08,-5.89 -4.63,-9.39 -6.45,-14.39 -9.4,-9.04 -11.54,-14.58 -24.5,-21.48 -11.04,-5.87 -22.43,-9.44 -37.18,-10.07 -45.5,-1.94 -47.02,13.99 -61.86,20.62 -25.02,11.18 -33.07,42.57 -26.93,74.32 3.31,17.09 20.22,58.44 32.35,61.1z"/>
   <path class="fil5" d="M152.37 295.89c-4.06,17.81 -4.74,37.04 -3.07,55.98 4.24,-3.63 5.83,-9.69 10.1,-11.97 3.93,39.42 14.34,64.87 24.94,99.51l30.47 0c3.62,-14.32 9.13,-24.36 14.27,-48.07 3.7,-17.06 6.77,-35.41 7.9,-53.22 6.18,2.84 11.1,14.47 14.43,17.44 0.38,-10.77 -1.51,-25.52 -3.2,-36 -3.1,-19.3 -3.97,-16.16 -8.87,-30.33l-1.07 0.29c-1.34,1.37 -0.31,-0.35 -0.69,2.35 -0.39,2.78 0.03,4.45 -1.56,8.22 -5.56,13.22 -26.7,25.47 -35.88,41.25 -0.84,1.44 -1.31,2.76 -2.24,4.38l-3.25 3.63c-7.71,-24.08 -4.4,-24.86 -15.95,-32.53 -7.99,-5.31 -21.08,-14.71 -20.76,-27.97 -0.88,-0.7 1.29,-1.58 -1.72,-0.07 -2.19,1.6 -2.59,4.63 -3.85,7.11z"/>
  </g>
 </g>
</svg>
