<?xml version="1.0" encoding="UTF-8"?>
<!DOCTYPE svg PUBLIC "-//W3C//DTD SVG 1.1//EN" "http://www.w3.org/Graphics/SVG/1.1/DTD/svg11.dtd">
<!-- Creator: CorelDRAW 2018 (64-Bit) -->
<svg xmlns="http://www.w3.org/2000/svg" xml:space="preserve" width="400px" height="450px" version="1.1" style="shape-rendering:geometricPrecision; text-rendering:geometricPrecision; image-rendering:optimizeQuality; fill-rule:evenodd; clip-rule:evenodd"
viewBox="0 0 400 450"
 xmlns:xlink="http://www.w3.org/1999/xlink">
 <defs>
  <style type="text/css">
   <![CDATA[
    .fil1 {fill:#9C2C28}
    .fil0 {fill:#D55047}
    .fil3 {fill:#F1C443}
    .fil4 {fill:#FEFEFE}
    .fil2 {fill:#FFDFC6}
   ]]>
  </style>
 </defs>
 <g id="Слой_x0020_1">
  <metadata id="CorelCorpID_0Corel-Layer"/>
  <g id="_2238307707056">
   <path class="fil0" d="M9.41 439.41l171.7 0c-2.02,-7.38 -5.27,-14.9 -7.79,-22.93 -6.98,-22.28 -11.86,-45.29 -15.55,-68.35l-1.02 -4.72c-0.06,-0.17 -0.24,-0.34 -0.29,-0.72 -0.04,-0.39 -0.17,-0.49 -0.68,-0.99l-9.13 12.14c-0.68,-20.36 -2.74,-48.72 7.11,-64.18 4.1,-5.92 4.76,-21.9 0.84,-27.84 -3.47,-5.25 -8.96,-13.56 -11.05,-20.13 -7.91,-5.62 -14.82,-18.15 -20.04,-27.81 -12.05,-22.3 -18.16,-53.01 -10.99,-78.27 7.76,-27.32 27.03,-29.28 34.16,-36.34 14.17,-14 34.66,-16.56 55.26,-15.43 43.33,2.37 57.32,30.24 61.25,33.1 0,-2.19 -0.83,-0.34 0.56,-1.7 1.39,3.58 40.42,40.82 41.75,41.66 2.39,5.32 54.91,55.31 63.19,63.32 3.49,3.37 7.08,7.06 10.56,10.41l11.34 10.64 0 -166.24 0 -64.45 -381.18 0 0 428.83z"/>
   <path class="fil1" d="M263.19 116.94c3.73,10.97 8.15,15.82 10.16,30.98 1.68,12.65 0.73,25.1 -1.67,37.29 -3.11,15.83 -15.56,47 -25.93,55.27 -4.8,7.34 -8.34,15.42 -13.39,22.59 -3.3,4.68 -2.42,9.02 -1.25,15.63 0.32,1.81 1.13,5.47 1.64,6.88 1.19,3.33 2.25,3.74 3.47,5.7 0.64,0.24 1.29,0.4 1.96,0.72 3.62,1.07 7.19,3.72 11.26,5.57 9.62,4.36 29.97,8.19 40.29,10.11 12.41,2.32 15.69,1.39 23.27,10.21 14.17,16.47 23.42,48.69 29.96,70.06l15.4 51.46 32.23 0 0 -198.14 -11.34 -10.64c-3.48,-3.35 -7.07,-7.04 -10.56,-10.41 -8.28,-8.01 -60.8,-58 -63.19,-63.32 -1.33,-0.84 -40.36,-38.08 -41.75,-41.66 -1.39,1.36 -0.56,-0.49 -0.56,1.7z"/>
   <path class="fil2" d="M143.55 241.69c2.09,6.57 7.58,14.88 11.05,20.13 3.92,5.94 3.26,21.92 -0.84,27.84 2.17,2.21 0.16,-0.79 1.28,2.22 1.69,4.58 -0.01,6.65 7.13,14.78 4.02,4.57 8.31,7.91 13.5,11.28 7.56,4.92 8.29,4.23 10.85,13.92 1.2,4.52 3.7,15.34 6.81,19.04 3.82,-4.69 4.81,-9.48 9.91,-15.05 4.59,-5.02 7.03,-9 12.26,-13.39 4.62,-3.88 8.45,-7.38 12.57,-12.22 4.45,-5.21 8,-10.05 7.06,-18.9l1.09 -0.06c-1.22,-1.96 -2.28,-2.37 -3.47,-5.7 -0.51,-1.41 -1.32,-5.07 -1.64,-6.88 -1.17,-6.61 -2.05,-10.95 1.25,-15.63 5.05,-7.17 8.59,-15.25 13.39,-22.59 6.14,-15.39 6.65,-21.36 0.62,-38.04 -5.02,-13.9 -9.1,-19.91 -18.66,-28.03 -7.83,-6.66 -18.23,-12.01 -28.98,-17.61l-29.22 -16.48c-9.59,3.8 -24.62,24.48 -28.37,39.92 -6.09,25.16 2.58,46.26 2.41,61.45z"/>
   <path class="fil0" d="M213.49 439.41l144.87 0 -15.4 -51.46c-6.54,-21.37 -15.79,-53.59 -29.96,-70.06 -7.58,-8.82 -10.86,-7.89 -23.27,-10.21 -10.32,-1.92 -30.67,-5.75 -40.29,-10.11 -4.07,-1.85 -7.64,-4.5 -11.26,-5.57 2.86,10.87 6.21,17.77 8.27,31.36 1.18,7.85 3.75,27.25 2.67,34.57 -2.58,-4.42 -11.09,-17.33 -14.2,-18.02 -1.85,18.27 -4.12,36.09 -7.9,53.14 -5.29,23.82 -8.77,28.98 -13.53,46.36z"/>
   <path class="fil3" d="M143.55 241.69c0.17,-15.19 -8.5,-36.29 -2.41,-61.45 3.75,-15.44 18.78,-36.12 28.37,-39.92l29.22 16.48c10.75,5.6 21.15,10.95 28.98,17.61 9.56,8.12 13.64,14.13 18.66,28.03 6.03,16.68 5.52,22.65 -0.62,38.04 10.37,-8.27 22.82,-39.44 25.93,-55.27 2.4,-12.19 3.35,-24.64 1.67,-37.29 -2.01,-15.16 -6.43,-20.01 -10.16,-30.98 -3.93,-2.86 -17.92,-30.73 -61.25,-33.1 -20.6,-1.13 -41.09,1.43 -55.26,15.43 -7.13,7.06 -26.4,9.02 -34.16,36.34 -7.17,25.26 -1.06,55.97 10.99,78.27 5.22,9.66 12.13,22.19 20.04,27.81z"/>
   <path class="fil4" d="M181.11 439.41l32.38 0c4.76,-17.38 8.24,-22.54 13.53,-46.36 3.78,-17.05 6.05,-34.87 7.9,-53.14 3.11,0.69 11.62,13.6 14.2,18.02 1.08,-7.32 -1.49,-26.72 -2.67,-34.57 -2.06,-13.59 -5.41,-20.49 -8.27,-31.36 -0.67,-0.32 -1.32,-0.48 -1.96,-0.72l-1.09 0.06c0.94,8.85 -2.61,13.69 -7.06,18.9 -4.12,4.84 -7.95,8.34 -12.57,12.22 -5.23,4.39 -7.67,8.37 -12.26,13.39 -5.1,5.57 -6.09,10.36 -9.91,15.05 -3.11,-3.7 -5.61,-14.52 -6.81,-19.04 -2.56,-9.69 -3.29,-9 -10.85,-13.92 -5.19,-3.37 -9.48,-6.71 -13.5,-11.28 -7.14,-8.13 -5.44,-10.2 -7.13,-14.78 -1.12,-3.01 0.89,-0.01 -1.28,-2.22 -9.85,15.46 -7.79,43.82 -7.11,64.18l9.13 -12.14c0.51,0.5 0.64,0.6 0.68,0.99 0.05,0.38 0.23,0.55 0.29,0.72l1.02 4.72c3.69,23.06 8.57,46.07 15.55,68.35 2.52,8.03 5.77,15.55 7.79,22.93z"/>
  </g>
 </g>
</svg>
